<svg version="1.1" viewBox="0.0 0.0 960.0 540.0" fill="none" stroke="none" stroke-linecap="square" stroke-miterlimit="10" xmlns:xlink="http://www.w3.org/1999/xlink" xmlns="http://www.w3.org/2000/svg"><clipPath id="p.0"><path d="m0 0l960.0 0l0 540.0l-960.0 0l0 -540.0z" clip-rule="nonzero"/></clipPath><g clip-path="url(#p.0)"><path fill="#ffffff" d="m0 0l960.0 0l0 540.0l-960.0 0z" fill-rule="evenodd"/><path fill="#000000" fill-opacity="0.0" d="m32.725285 162.25197l894.5512 0l0 215.49605l-894.5512 0z" fill-rule="evenodd"/><path fill="#000000" d="m177.30862 207.70311l-6.96875 14.0q-5.65625 -5.671875 -18.21875 -5.671875q-11.921875 0 -19.546875 10.0q-7.6093674 9.984375 -7.6093674 25.296875q0 15.29689 7.0624924 24.281265q7.0625 8.984375 18.859375 8.984375q13.46875 0 21.078125 -9.640625l7.890625 13.671875q-10.359375 11.0 -30.34375 11.0q-19.984375 0 -31.062492 -13.140625q-11.0625 -13.15625 -11.0625 -35.875015q0 -21.15625 12.265625 -35.375q12.281242 -14.234375 31.421867 -14.234375q16.40625 0 26.234375 6.703125zm11.650467 41.796875q0 -20.375 11.15625 -34.46875q11.171875 -14.09375 29.859375 -14.09375q20.578125 0 31.437515 12.765625q10.875 12.75 10.875 35.796875q0 23.04689 -11.359375 36.593765q-11.35939 13.53125 -32.250015 13.53125q-19.203125 0 -29.46875 -13.40625q-10.25 -13.40625 -10.25 -36.718765zm17.578125 0q0 16.73439 5.65625 25.92189q5.671875 9.171875 16.484375 9.171875q12.6875 0 19.359375 -8.984375q6.671875 -8.984375 6.671875 -26.10939q0 -33.53125 -24.734375 -33.53125q-11.328125 0 -17.390625 9.09375q-6.046875 9.078125 -6.046875 24.4375zm116.2776 49.79689l-9.3125 0l-35.671875 -96.67189l18.609375 0l22.078125 64.45314l23.3125 -64.45314l18.21875 0l-37.234375 96.67189zm47.65561 -1.296875l0 -95.375015l16.921875 0l0 95.375015l-16.921875 0zm57.936035 0l-21.15625 0l0 -95.312515q20.25 -0.71875 25.453125 -0.71875q20.828125 0 33.03125 12.21875q12.21875 12.203125 12.21875 32.375q0 51.437515 -49.546875 51.437515zm-4.234375 -80.531265l0 65.10939q4.109375 0.390625 8.859375 0.390625q12.828125 0 20.078125 -9.3125q7.265625 -9.3125 7.265625 -26.04689q0 -30.59375 -28.453125 -30.59375q-2.734375 0 -7.75 0.453125zm66.07999 49.54689l0 -15.29689l34.4375 0l0 15.29689l-34.4375 0z" fill-rule="nonzero"/><path fill="#3b5acc" d="m537.3179 298.0l0 -5.46875l39.78125 -74.85939l-39.125 0l0 -15.046875l62.171875 0l0 5.46875l-39.90625 74.875015l41.34375 0l0 15.03125l-64.265625 0zm96.155945 -80.32814l0 22.328125l31.515625 0l0 14.375l-31.515625 0l0 28.593765l43.234375 0l0 15.03125l-60.15625 0l0 -95.375015l60.875 0l0 15.046875l-43.953125 0zm112.70276 80.32814l-25.46875 -39.390625q-3.828125 -0.0625 -10.734375 -0.453125l0 39.84375l-17.578125 0l0 -95.375015q1.4375 0 11.0 -0.484375q9.578125 -0.484375 15.4375 -0.484375q36.3125 0 36.3125 28.125q0 8.453125 -5.015625 15.421875q-5.0 6.96875 -12.625 9.828125l28.1875 42.968765l-19.515625 0zm-36.203125 -80.656265l0 26.484375q4.6875 0.390625 7.15625 0.390625q10.609375 0 15.53125 -2.984375q4.921875 -3.0 4.921875 -11.65625q0 -7.03125 -5.28125 -9.828125q-5.265625 -2.796875 -16.59375 -2.796875q-2.734375 0 -5.734375 0.390625zm59.301514 32.15625q0 -20.375 11.15625 -34.46875q11.171875 -14.09375 29.859375 -14.09375q20.578125 0 31.4375 12.765625q10.875 12.75 10.875 35.796875q0 23.04689 -11.359375 36.593765q-11.359375 13.53125 -32.25 13.53125q-19.203125 0 -29.46875 -13.40625q-10.25 -13.40625 -10.25 -36.718765zm17.578125 0q0 16.73439 5.65625 25.92189q5.671875 9.171875 16.484375 9.171875q12.6875 0 19.359375 -8.984375q6.671875 -8.984375 6.671875 -26.10939q0 -33.53125 -24.734375 -33.53125q-11.328125 0 -17.390625 9.09375q-6.046875 9.078125 -6.046875 24.4375z" fill-rule="nonzero"/><path fill="#3b5acc" d="m93.08405 362.32812l-1.640625 0l-8.875 -24.171875l3.609375 0l6.125 17.5625l5.90625 -17.5625l3.5 0l-8.625 24.171875zm14.233276 -24.34375q0.796875 0 1.359375 0.5625q0.5625 0.5625 0.5625 1.34375q0 0.796875 -0.5625 1.359375q-0.5625 0.546875 -1.359375 0.546875q-0.78125 0 -1.34375 -0.546875q-0.5625 -0.5625 -0.5625 -1.359375q0 -0.796875 0.546875 -1.34375q0.5625 -0.5625 1.359375 -0.5625zm-1.703125 24.015625l0 -14.828125l-2.390625 0l0 -2.59375l5.484375 0l0 17.421875l-3.09375 0zm6.878723 -1.046875l1.078125 -2.921875q2.59375 1.6875 4.171875 1.6875q2.859375 0 2.859375 -2.40625q0 -1.71875 -2.765625 -2.96875q-2.125 -0.96875 -2.875 -1.46875q-0.734375 -0.515625 -1.28125 -1.15625q-0.546875 -0.640625 -0.8125 -1.359375q-0.265625 -0.734375 -0.265625 -1.5625q0 -2.140625 1.5625 -3.34375q1.5625 -1.203125 4.078125 -1.203125q1.90625 0 4.8125 1.203125l-0.890625 2.859375q-1.828125 -1.46875 -3.6875 -1.46875q-1.109375 0 -1.875 0.53125q-0.75 0.515625 -0.75 1.3125q0 1.671875 1.90625 2.546875l2.21875 1.0q2.03125 0.921875 2.953125 2.125q0.9375 1.1875 0.9375 2.96875q0 2.34375 -1.65625 3.671875q-1.640625 1.328125 -4.546875 1.328125q-2.75 0 -5.171875 -1.375zm17.55323 -16.375l0 11.109375q0 4.03125 3.5 4.03125q1.53125 0 2.796875 -0.875q1.265625 -0.875 1.671875 -2.03125l0 -12.234375l3.09375 0l0 17.421875l-3.09375 0l0 -2.40625q-0.515625 1.015625 -2.09375 1.875q-1.5625 0.859375 -3.0625 0.859375q-2.859375 0 -4.390625 -1.640625q-1.5156174 -1.65625 -1.5156174 -4.671875l0 -11.4375l3.0937424 0zm25.131927 15.421875q-1.859375 2.328125 -5.6875 2.328125q-2.046875 0 -3.5625 -1.484375q-1.5 -1.5 -1.5 -3.703125q0 -2.65625 2.3125 -4.484375q2.328125 -1.84375 5.921875 -1.84375q0.984375 0 2.21875 0.4375q0 -4.234375 -3.78125 -4.234375q-2.890625 0 -4.453125 1.5625l-1.296875 -2.59375q0.875 -0.71875 2.421875 -1.21875q1.5625 -0.515625 2.96875 -0.515625q3.796875 0 5.515625 1.734375q1.71875 1.71875 1.71875 5.46875l0 6.25q0 2.296875 1.359375 3.0625l0 1.546875q-1.875 0 -2.8125 -0.53125q-0.9375 -0.546875 -1.34375 -1.78125zm-0.296875 -6.5625q-1.46875 -0.328125 -2.046875 -0.328125q-2.34375 0 -3.828125 1.203125q-1.484375 1.203125 -1.484375 2.859375q0 2.71875 3.203125 2.71875q2.34375 0 4.15625 -2.234375l0 -4.21875zm8.197784 3.625l0 -19.640625l3.09375 0l0 19.125q0 1.40625 0.796875 2.21875q0.8125 0.796875 2.125 0.796875l0 2.765625q-6.015625 0 -6.015625 -5.265625zm12.782318 -19.078125q0.796875 0 1.359375 0.5625q0.5625 0.5625 0.5625 1.34375q0 0.796875 -0.5625 1.359375q-0.5625 0.546875 -1.359375 0.546875q-0.78125 0 -1.34375 -0.546875q-0.5625 -0.5625 -0.5625 -1.359375q0 -0.796875 0.546875 -1.34375q0.5625 -0.5625 1.359375 -0.5625zm-1.703125 24.015625l0 -14.828125l-2.390625 0l0 -2.59375l5.484375 0l0 17.421875l-3.09375 0zm11.316223 -2.765625l9.671875 0l0 2.765625l-14.515625 0l0 -0.8125l9.90625 -13.84375l-9.75 0l0 -2.765625l14.25 0l0 0.875l-9.5625 13.78125zm27.19284 -5.640625l-12.5625 0q0 3.046875 1.671875 4.703125q1.484375 1.421875 3.8125 1.421875q2.65625 0 4.421875 -1.546875l1.3125 2.234375q-0.71875 0.71875 -2.203125 1.234375q-1.859375 0.6875 -4.140625 0.6875q-3.28125 0 -5.578125 -2.234375q-2.546875 -2.453125 -2.546875 -6.609375q0 -4.3125 2.609375 -6.90625q2.34375 -2.328125 5.5625 -2.328125q3.71875 0 5.828125 2.09375q2.0625 2.015625 2.0625 5.359375q0 1.015625 -0.25 1.890625zm-7.5 -6.75q-2.0625 0 -3.46875 1.34375q-1.328125 1.265625 -1.515625 3.15625l9.65625 0q0 -1.875 -1.171875 -3.125q-1.28125 -1.375 -3.5 -1.375zm30.890137 13.15625q-1.859375 2.328125 -5.6875 2.328125q-2.046875 0 -3.5625 -1.484375q-1.5 -1.5 -1.5 -3.703125q0 -2.65625 2.3125 -4.484375q2.328125 -1.84375 5.921875 -1.84375q0.984375 0 2.21875 0.4375q0 -4.234375 -3.78125 -4.234375q-2.890625 0 -4.453125 1.5625l-1.296875 -2.59375q0.875 -0.71875 2.421875 -1.21875q1.5625 -0.515625 2.96875 -0.515625q3.796875 0 5.515625 1.734375q1.71875 1.71875 1.71875 5.46875l0 6.25q0 2.296875 1.359375 3.0625l0 1.546875q-1.875 0 -2.8125 -0.53125q-0.9375 -0.546875 -1.34375 -1.78125zm-0.296875 -6.5625q-1.46875 -0.328125 -2.046875 -0.328125q-2.34375 0 -3.828125 1.203125q-1.484375 1.203125 -1.484375 2.859375q0 2.71875 3.203125 2.71875q2.34375 0 4.15625 -2.234375l0 -4.21875zm18.68216 8.5625l0 -10.140625q0 -2.78125 -0.84375 -3.890625q-0.828125 -1.125 -2.796875 -1.125q-1.0625 0 -2.21875 0.640625q-1.15625 0.640625 -1.78125 1.5625l0 12.953125l-3.078125 0l0 -17.421875l2.109375 0l0.96875 2.234375q1.53125 -2.5625 5.0 -2.5625q5.7343903 0 5.7343903 6.953125l0 10.796875l-3.0937653 0zm18.538193 -0.015625l0 -1.28125q-1.609375 1.609375 -4.6875 1.609375q-3.28125 0 -5.3125 -2.34375q-2.03125 -2.34375 -2.03125 -6.25q0 -3.921875 2.34375 -6.6875q2.34375 -2.78125 5.578125 -2.78125q2.703125 0 4.109375 1.265625l0 -8.09375l3.09375 0l0 24.5625l-3.09375 0zm0 -13.375q-1.171875 -1.765625 -3.203125 -1.765625q-2.5 0 -4.046875 1.859375q-1.53125 1.859375 -1.53125 4.71875q0 6.296875 5.734375 6.296875q0.734375 0 1.75 -0.453125q1.03125 -0.46875 1.296875 -1.0l0 -9.65625zm27.40567 11.390625q-1.859375 2.328125 -5.6875 2.328125q-2.046875 0 -3.5625 -1.484375q-1.5 -1.5 -1.5 -3.703125q0 -2.65625 2.3125 -4.484375q2.328125 -1.84375 5.921875 -1.84375q0.984375 0 2.21875 0.4375q0 -4.234375 -3.78125 -4.234375q-2.890625 0 -4.453125 1.5625l-1.296875 -2.59375q0.875 -0.71875 2.421875 -1.21875q1.5625 -0.515625 2.96875 -0.515625q3.796875 0 5.515625 1.734375q1.71875 1.71875 1.71875 5.46875l0 6.25q0 2.296875 1.359375 3.0625l0 1.546875q-1.875 0 -2.8125 -0.53125q-0.9375 -0.546875 -1.34375 -1.78125zm-0.296875 -6.5625q-1.46875 -0.328125 -2.046875 -0.328125q-2.34375 0 -3.828125 1.203125q-1.484375 1.203125 -1.484375 2.859375q0 2.71875 3.203125 2.71875q2.34375 0 4.15625 -2.234375l0 -4.21875zm18.68219 8.5625l0 -10.140625q0 -2.78125 -0.84375 -3.890625q-0.828125 -1.125 -2.796875 -1.125q-1.0625 0 -2.21875 0.640625q-1.15625 0.640625 -1.78125 1.5625l0 12.953125l-3.078125 0l0 -17.421875l2.109375 0l0.96875 2.234375q1.53125 -2.5625 5.0 -2.5625q5.734375 0 5.734375 6.953125l0 10.796875l-3.09375 0zm17.335022 -2.0q-1.859375 2.328125 -5.6875 2.328125q-2.046875 0 -3.5625 -1.484375q-1.5 -1.5 -1.5 -3.703125q0 -2.65625 2.3125 -4.484375q2.328125 -1.84375 5.921875 -1.84375q0.984375 0 2.21875 0.4375q0 -4.234375 -3.78125 -4.234375q-2.890625 0 -4.453125 1.5625l-1.296875 -2.59375q0.875 -0.71875 2.421875 -1.21875q1.5625 -0.515625 2.96875 -0.515625q3.796875 0 5.515625 1.734375q1.71875 1.71875 1.71875 5.46875l0 6.25q0 2.296875 1.359375 3.0625l0 1.546875q-1.875 0 -2.8125 -0.53125q-0.9375 -0.546875 -1.34375 -1.78125zm-0.296875 -6.5625q-1.46875 -0.328125 -2.046875 -0.328125q-2.34375 0 -3.828125 1.203125q-1.484375 1.203125 -1.484375 2.859375q0 2.71875 3.203125 2.71875q2.34375 0 4.15625 -2.234375l0 -4.21875zm8.197815 3.625l0 -19.640625l3.09375 0l0 19.125q0 1.40625 0.796875 2.21875q0.8125 0.796875 2.125 0.796875l0 2.765625q-6.015625 0 -6.015625 -5.265625zm16.251068 7.90625q-0.609375 1.65625 -2.546875 2.75q-1.921875 1.109375 -4.296875 1.109375l0 -2.765625q1.9375 0 3.3125 -0.90625q1.390625 -0.890625 1.390625 -2.203125q0 -1.421875 -0.5 -2.8125q-0.5 -1.390625 -1.296875 -3.453125l-4.734375 -12.109375l3.171875 0l5.125 13.46875l4.59375 -13.46875l3.15625 0l-7.375 20.390625zm13.076874 -5.734375l9.671875 0l0 2.765625l-14.515625 0l0 -0.8125l9.90625 -13.84375l-9.75 0l0 -2.765625l14.25 0l0 0.875l-9.5625 13.78125zm27.19284 -5.640625l-12.5625 0q0 3.046875 1.671875 4.703125q1.484375 1.421875 3.8125 1.421875q2.65625 0 4.421875 -1.546875l1.3125 2.234375q-0.71875 0.71875 -2.203125 1.234375q-1.859375 0.6875 -4.140625 0.6875q-3.28125 0 -5.578125 -2.234375q-2.546875 -2.453125 -2.546875 -6.609375q0 -4.3125 2.609375 -6.90625q2.34375 -2.328125 5.5625 -2.328125q3.71875 0 5.828125 2.09375q2.0625 2.015625 2.0625 5.359375q0 1.015625 -0.25 1.890625zm-7.5 -6.75q-2.0625 0 -3.46875 1.34375q-1.328125 1.265625 -1.515625 3.15625l9.65625 0q0 -1.875 -1.171875 -3.125q-1.28125 -1.375 -3.5 -1.375zm36.499542 -7.8125l-1.09375 2.796875q-1.5625 -1.140625 -4.90625 -1.140625q-3.140625 0 -5.046875 2.703125q-1.890625 2.6875 -1.890625 6.953125q0 4.078125 1.9375 6.609375q1.953125 2.53125 5.03125 2.53125q3.34375 0 5.15625 -2.375l1.796875 2.484375q-2.84375 2.8125 -7.296875 2.8125q-4.671875 0 -7.359375 -3.359375q-2.6875 -3.375 -2.6875 -8.890625q0 -5.34375 2.859375 -8.875q2.875 -3.53125 7.421875 -3.53125q3.875 0 6.078125 1.28125zm3.5756836 10.84375q0 -5.171875 2.59375 -8.65625q2.609375 -3.484375 7.015625 -3.484375q4.953125 0 7.59375 3.203125q2.65625 3.203125 2.65625 8.9375q0 5.875 -2.65625 9.203125q-2.65625 3.328125 -7.59375 3.328125q-4.515625 0 -7.0625 -3.515625q-2.546875 -3.515625 -2.546875 -9.015625zm3.421875 0q0 4.109375 1.609375 6.859375q1.625 2.75 4.578125 2.75q3.328125 0 5.078125 -2.515625q1.75 -2.53125 1.75 -7.09375q0 -9.203125 -6.828125 -9.203125q-3.03125 0 -4.609375 2.46875q-1.578125 2.46875 -1.578125 6.734375zm28.473053 12.453125l-1.640625 0l-8.875 -24.171875l3.609375 0l6.125 17.5625l5.90625 -17.5625l3.5 0l-8.625 24.171875zm11.858276 -0.328125l0 -23.84375l3.25 0l0 23.84375l-3.25 0zm13.494659 0l-4.796875 0l0 -23.84375q4.59375 -0.15625 5.875 -0.15625q5.0 0 7.90625 3.03125q2.921875 3.03125 2.921875 8.078125q0 12.890625 -11.90625 12.890625zm-1.53125 -20.90625l0 17.8125q1.078125 0.171875 2.6875 0.171875q3.421875 0 5.375 -2.5625q1.953125 -2.578125 1.953125 -7.125q0 -8.46875 -7.59375 -8.46875q-0.453125 0 -2.421875 0.171875zm17.33014 12.671875l0 -2.84375l6.953125 0l0 2.84375l-6.953125 0zm17.753296 8.234375l0 -18.28125l-4.859375 3.03125l0 -3.046875q1.84375 -0.921875 3.921875 -2.546875q2.078125 -1.625 3.203125 -3.09375l0.984375 0l0 23.9375l-3.25 0zm15.727722 0.40625l-1.578125 -1.734375q1.421875 -0.578125 4.140625 -3.84375q2.734375 -3.28125 3.0 -5.046875q-1.328125 1.28125 -3.75 1.28125q-3.15625 0 -5.0625 -2.015625q-1.90625 -2.015625 -1.90625 -5.546875q0 -3.5 1.953125 -5.625q1.96875 -2.140625 4.9375 -2.140625q7.84375 0 7.84375 10.40625q0 4.328125 -3.078125 8.859375q-3.0625 4.53125 -6.5 5.40625zm6.15625 -16.8125q0 -5.09375 -4.1875 -5.09375q-1.75 0 -2.765625 1.328125q-1.015625 1.328125 -1.015625 3.5q0 2.265625 1.0625 3.625q1.078125 1.34375 2.765625 1.34375q4.140625 0 4.140625 -4.703125zm28.252869 16.390625l0 -1.28125q-1.609375 1.609375 -4.6875 1.609375q-3.28125 0 -5.3125 -2.34375q-2.03125 -2.34375 -2.03125 -6.25q0 -3.921875 2.34375 -6.6875q2.34375 -2.78125 5.578125 -2.78125q2.703125 0 4.109375 1.265625l0 -8.09375l3.09375 0l0 24.5625l-3.09375 0zm0 -13.375q-1.171875 -1.765625 -3.203125 -1.765625q-2.5 0 -4.046875 1.859375q-1.53125 1.859375 -1.53125 4.71875q0 6.296875 5.734375 6.296875q0.734375 0 1.75 -0.453125q1.03125 -0.46875 1.296875 -1.0l0 -9.65625zm17.36493 11.390625q-1.859375 2.328125 -5.6875 2.328125q-2.046875 0 -3.5625 -1.484375q-1.5 -1.5 -1.5 -3.703125q0 -2.65625 2.3125 -4.484375q2.328125 -1.84375 5.921875 -1.84375q0.984375 0 2.21875 0.4375q0 -4.234375 -3.78125 -4.234375q-2.890625 0 -4.453125 1.5625l-1.296875 -2.59375q0.875 -0.71875 2.421875 -1.21875q1.5625 -0.515625 2.96875 -0.515625q3.796875 0 5.515625 1.734375q1.71875 1.71875 1.71875 5.46875l0 6.25q0 2.296875 1.359375 3.0625l0 1.546875q-1.875 0 -2.8125 -0.53125q-0.9375 -0.546875 -1.34375 -1.78125zm-0.296875 -6.5625q-1.46875 -0.328125 -2.046875 -0.328125q-2.34375 0 -3.828125 1.203125q-1.484375 1.203125 -1.484375 2.859375q0 2.71875 3.203125 2.71875q2.34375 0 4.15625 -2.234375l0 -4.21875zm9.05719 -6.421875l-2.015625 0l0 -2.4375l2.015625 0l0 -3.65625l3.09375 -1.1875l0 4.84375l4.796875 0l0 2.4375l-4.796875 0l0 8.65625q0 2.1875 0.734375 3.125q0.75 0.921875 2.390625 0.921875q1.1875 0 2.46875 -0.59375l0.453125 2.71875q-1.921875 0.484375 -4.21875 0.484375q-2.0625 0 -3.5 -1.53125q-1.421875 -1.546875 -1.421875 -3.890625l0 -9.890625zm21.964111 12.984375q-1.859375 2.328125 -5.6875 2.328125q-2.046875 0 -3.5625 -1.484375q-1.5 -1.5 -1.5 -3.703125q0 -2.65625 2.3125 -4.484375q2.328125 -1.84375 5.921875 -1.84375q0.984375 0 2.21875 0.4375q0 -4.234375 -3.78125 -4.234375q-2.890625 0 -4.453125 1.5625l-1.296875 -2.59375q0.875 -0.71875 2.421875 -1.21875q1.5625 -0.515625 2.96875 -0.515625q3.796875 0 5.515625 1.734375q1.71875 1.71875 1.71875 5.46875l0 6.25q0 2.296875 1.359375 3.0625l0 1.546875q-1.875 0 -2.8125 -0.53125q-0.9375 -0.546875 -1.34375 -1.78125zm-0.296875 -6.5625q-1.46875 -0.328125 -2.046875 -0.328125q-2.34375 0 -3.828125 1.203125q-1.484375 1.203125 -1.484375 2.859375q0 2.71875 3.203125 2.71875q2.34375 0 4.15625 -2.234375l0 -4.21875zm21.19165 -15.453125q0.796875 0 1.359375 0.5625q0.5625 0.5625 0.5625 1.34375q0 0.796875 -0.5625 1.359375q-0.5625 0.546875 -1.359375 0.546875q-0.78125 0 -1.34375 -0.546875q-0.5625 -0.5625 -0.5625 -1.359375q0 -0.796875 0.546875 -1.34375q0.5625 -0.5625 1.359375 -0.5625zm-1.703125 24.015625l0 -14.828125l-2.390625 0l0 -2.59375l5.484375 0l0 17.421875l-3.09375 0zm18.738098 0l0 -10.140625q0 -2.78125 -0.84375 -3.890625q-0.828125 -1.125 -2.796875 -1.125q-1.0625 0 -2.21875 0.640625q-1.15625 0.640625 -1.78125 1.5625l0 12.953125l-3.078125 0l0 -17.421875l2.109375 0l0.96875 2.234375q1.53125 -2.5625 5.0 -2.5625q5.734375 0 5.734375 6.953125l0 10.796875l-3.09375 0zm30.672668 -16.015625l-1.53125 2.1875q-0.46875 -0.46875 -1.671875 -0.890625q-1.1875 -0.4375 -2.34375 -0.4375q-2.515625 0 -4.0 1.765625q-1.484375 1.765625 -1.484375 4.84375q0 3.0625 1.515625 4.671875q1.515625 1.59375 4.203125 1.59375q2.078125 0 4.1875 -1.609375l1.21875 2.609375q-2.484375 1.609375 -6.15625 1.609375q-3.5625 0 -5.890625 -2.390625q-2.328125 -2.390625 -2.328125 -6.484375q0 -4.15625 2.40625 -6.671875q2.421875 -2.53125 6.625 -2.53125q1.34375 0 2.921875 0.578125q1.578125 0.5625 2.328125 1.15625zm2.2200928 7.265625q0 -4.046875 2.171875 -6.515625q2.171875 -2.484375 5.71875 -2.484375q3.734375 0 5.796875 2.390625q2.078125 2.375 2.078125 6.609375q0 4.203125 -2.125 6.640625q-2.109375 2.4375 -5.75 2.4375q-3.734375 0 -5.8125 -2.453125q-2.078125 -2.46875 -2.078125 -6.625zm3.25 0q0 6.546875 4.640625 6.546875q2.15625 0 3.390625 -1.75q1.234375 -1.765625 1.234375 -4.796875q0 -6.484375 -4.625 -6.484375q-2.125 0 -3.390625 1.734375q-1.25 1.71875 -1.25 4.75zm35.947083 8.75l0 -11.03125q0 -4.125 -3.5625 -4.125q-1.125 0 -2.109375 0.703125q-0.96875 0.6875 -1.328125 1.5625l0 12.890625l-3.09375 0l0 -12.390625q0 -1.28125 -0.96875 -2.015625q-0.96875 -0.75 -2.5625 -0.75q-0.921875 0 -1.96875 0.71875q-1.046875 0.71875 -1.5 1.578125l0 12.859375l-3.078125 0l0 -17.421875l2.015625 0l1.015625 2.015625q1.796875 -2.34375 4.484375 -2.34375q3.734375 0 5.234375 2.328125q0.515625 -1.0 1.9375 -1.65625q1.421875 -0.671875 2.921875 -0.671875q2.6875 0 4.171875 1.609375q1.484375 1.59375 1.484375 4.484375l0 11.65625l-3.09375 0zm27.664978 0l0 -11.03125q0 -4.125 -3.5625 -4.125q-1.125 0 -2.109375 0.703125q-0.96875 0.6875 -1.328125 1.5625l0 12.890625l-3.09375 0l0 -12.390625q0 -1.28125 -0.96875 -2.015625q-0.96875 -0.75 -2.5625 -0.75q-0.921875 0 -1.96875 0.71875q-1.046875 0.71875 -1.5 1.578125l0 12.859375l-3.078125 0l0 -17.421875l2.015625 0l1.015625 2.015625q1.796875 -2.34375 4.484375 -2.34375q3.734375 0 5.234375 2.328125q0.515625 -1.0 1.9375 -1.65625q1.421875 -0.671875 2.921875 -0.671875q2.6875 0 4.171875 1.609375q1.484375 1.59375 1.484375 4.484375l0 11.65625l-3.09375 0zm10.414917 -17.421875l0 11.109375q0 4.03125 3.5 4.03125q1.53125 0 2.796875 -0.875q1.265625 -0.875 1.671875 -2.03125l0 -12.234375l3.09375 0l0 17.421875l-3.09375 0l0 -2.40625q-0.515625 1.015625 -2.09375 1.875q-1.5625 0.859375 -3.0625 0.859375q-2.859375 0 -4.390625 -1.640625q-1.515625 -1.65625 -1.515625 -4.671875l0 -11.4375l3.09375 0zm26.006958 17.421875l0 -10.140625q0 -2.78125 -0.84375 -3.890625q-0.828125 -1.125 -2.796875 -1.125q-1.0625 0 -2.21875 0.640625q-1.15625 0.640625 -1.78125 1.5625l0 12.953125l-3.078125 0l0 -17.421875l2.109375 0l0.96875 2.234375q1.53125 -2.5625 5.0 -2.5625q5.734375 0 5.734375 6.953125l0 10.796875l-3.09375 0zm10.678833 -24.015625q0.796875 0 1.359375 0.5625q0.5625 0.5625 0.5625 1.34375q0 0.796875 -0.5625 1.359375q-0.5625 0.546875 -1.359375 0.546875q-0.78125 0 -1.34375 -0.546875q-0.5625 -0.5625 -0.5625 -1.359375q0 -0.796875 0.546875 -1.34375q0.5625 -0.5625 1.359375 -0.5625zm-1.703125 24.015625l0 -14.828125l-2.390625 0l0 -2.59375l5.484375 0l0 17.421875l-3.09375 0zm9.113098 -14.984375l-2.015625 0l0 -2.4375l2.015625 0l0 -3.65625l3.09375 -1.1875l0 4.84375l4.796875 0l0 2.4375l-4.796875 0l0 8.65625q0 2.1875 0.734375 3.125q0.75 0.921875 2.390625 0.921875q1.1875 0 2.46875 -0.59375l0.453125 2.71875q-1.921875 0.484375 -4.21875 0.484375q-2.0625 0 -3.5 -1.53125q-1.421875 -1.546875 -1.421875 -3.890625l0 -9.890625zm15.3078 -9.03125q0.796875 0 1.359375 0.5625q0.5625 0.5625 0.5625 1.34375q0 0.796875 -0.5625 1.359375q-0.5625 0.546875 -1.359375 0.546875q-0.78125 0 -1.34375 -0.546875q-0.5625 -0.5625 -0.5625 -1.359375q0 -0.796875 0.546875 -1.34375q0.5625 -0.5625 1.359375 -0.5625zm-1.703125 24.015625l0 -14.828125l-2.390625 0l0 -2.59375l5.484375 0l0 17.421875l-3.09375 0zm22.691223 -8.40625l-12.5625 0q0 3.046875 1.671875 4.703125q1.484375 1.421875 3.8125 1.421875q2.65625 0 4.421875 -1.546875l1.3125 2.234375q-0.71875 0.71875 -2.203125 1.234375q-1.859375 0.6875 -4.140625 0.6875q-3.28125 0 -5.578125 -2.234375q-2.546875 -2.453125 -2.546875 -6.609375q0 -4.3125 2.609375 -6.90625q2.34375 -2.328125 5.5625 -2.328125q3.71875 0 5.828125 2.09375q2.0625 2.015625 2.0625 5.359375q0 1.015625 -0.25 1.890625zm-7.5 -6.75q-2.0625 0 -3.46875 1.34375q-1.328125 1.265625 -1.515625 3.15625l9.65625 0q0 -1.875 -1.171875 -3.125q-1.28125 -1.375 -3.5 -1.375zm9.86499 14.109375l1.078125 -2.921875q2.59375 1.6875 4.171875 1.6875q2.859375 0 2.859375 -2.40625q0 -1.71875 -2.765625 -2.96875q-2.125 -0.96875 -2.875 -1.46875q-0.734375 -0.515625 -1.28125 -1.15625q-0.546875 -0.640625 -0.8125 -1.359375q-0.265625 -0.734375 -0.265625 -1.5625q0 -2.140625 1.5625 -3.34375q1.5625 -1.203125 4.078125 -1.203125q1.90625 0 4.8125 1.203125l-0.890625 2.859375q-1.828125 -1.46875 -3.6875 -1.46875q-1.109375 0 -1.875 0.53125q-0.75 0.515625 -0.75 1.3125q0 1.671875 1.90625 2.546875l2.21875 1.0q2.03125 0.921875 2.953125 2.125q0.9375 1.1875 0.9375 2.96875q0 2.34375 -1.65625 3.671875q-1.640625 1.328125 -4.546875 1.328125q-2.75 0 -5.171875 -1.375zm18.193848 -3.53125q1.0 0 1.71875 0.71875q0.71875 0.71875 0.71875 1.734375q0 1.0 -0.71875 1.734375q-0.71875 0.71875 -1.71875 0.71875q-1.015625 0 -1.734375 -0.71875q-0.71875 -0.734375 -0.71875 -1.734375q0 -1.015625 0.71875 -1.734375q0.71875 -0.71875 1.734375 -0.71875z" fill-rule="nonzero"/></g></svg>